<?xml version="1.0" standalone="no"?>
<!DOCTYPE svg PUBLIC "-//W3C//DTD SVG 20010904//EN"
 "http://www.w3.org/TR/2001/REC-SVG-20010904/DTD/svg10.dtd">
<svg version="1.0" xmlns="http://www.w3.org/2000/svg"
 width="704.000000pt" height="704.000000pt" viewBox="0 0 704.000000 704.000000"
 preserveAspectRatio="xMidYMid meet">
<metadata>
Created by potrace 1.14, written by Peter Selinger 2001-2017
</metadata>
<g transform="translate(0.000000,704.000000) scale(0.100000,-0.100000)"
fill="#000000" stroke="none">
<path d="M4259 6759 c-107 -47 -235 -96 -269 -104 -8 -1 -35 -8 -60 -15 -25
-7 -54 -14 -65 -16 -11 -2 -42 -8 -70 -14 -115 -22 -218 -29 -690 -45 -224 -8
-374 -20 -475 -40 -13 -3 -42 -7 -63 -10 -22 -4 -50 -10 -63 -15 -13 -5 -24
-7 -24 -5 0 3 -16 -1 -35 -9 -20 -9 -39 -15 -43 -16 -5 0 -65 -17 -92 -25 -63
-20 -261 -122 -355 -183 -55 -36 -102 -69 -105 -72 -3 -3 -26 -21 -52 -40 -27
-18 -48 -37 -48 -41 0 -4 -6 -9 -14 -11 -20 -5 -142 -115 -316 -285 -85 -84
-156 -153 -157 -153 -1 0 -26 -25 -55 -57 -29 -31 -75 -80 -103 -108 -27 -29
-93 -98 -145 -155 -52 -56 -108 -117 -125 -135 -117 -127 -248 -280 -345 -405
-28 -36 -59 -74 -68 -86 -10 -11 -38 -52 -62 -90 -25 -38 -48 -70 -52 -72 -5
-2 -8 -8 -8 -13 0 -5 -15 -32 -33 -61 -27 -44 -102 -192 -138 -273 -14 -33
-67 -198 -72 -225 -3 -14 -9 -43 -15 -65 -6 -22 -13 -58 -16 -80 -3 -22 -9
-65 -13 -95 -5 -30 -8 -147 -7 -260 0 -184 4 -250 19 -330 2 -14 7 -41 9 -60
6 -37 8 -49 21 -115 10 -48 7 -35 29 -124 11 -42 15 -76 10 -80 -28 -19 -67
-113 -69 -166 0 -16 8 -57 18 -90 10 -33 19 -64 21 -70 10 -37 53 -175 79
-255 26 -77 40 -103 74 -137 23 -24 49 -43 57 -43 8 0 16 -5 18 -10 3 -11 72
-22 126 -20 18 0 32 -4 32 -11 0 -6 14 -31 30 -56 17 -24 30 -46 30 -48 0 -16
215 -311 280 -385 17 -19 50 -57 74 -85 197 -225 482 -464 756 -634 178 -111
300 -173 565 -287 44 -19 231 -84 255 -89 3 0 37 -10 75 -22 73 -22 260 -65
355 -82 79 -14 123 -20 275 -37 86 -10 545 -11 599 -1 21 3 56 9 78 12 22 4
50 10 62 14 11 5 23 8 26 8 15 -1 94 30 153 61 115 60 191 149 251 295 8 20
19 37 23 36 32 -7 385 162 505 242 33 21 63 39 67 39 4 0 16 8 27 18 10 10 41
33 69 52 55 38 58 40 159 125 85 71 240 225 317 315 64 74 184 236 219 295 13
22 26 42 29 45 25 22 231 443 231 471 0 6 7 25 15 42 15 33 82 261 91 311 3
16 7 33 10 38 3 5 7 23 9 41 3 32 11 78 20 127 3 14 8 52 10 85 6 64 10 70 70
86 22 6 103 30 180 54 139 44 146 45 158 10 4 -11 204 51 293 90 93 41 168
126 204 231 27 78 21 193 -14 297 -15 42 -29 85 -31 95 -2 9 -17 58 -33 107
-31 95 -173 537 -177 555 -1 3 -4 12 -8 20 -8 20 -30 93 -33 105 -1 6 -16 53
-34 105 -18 52 -34 104 -35 115 -2 11 -9 36 -16 55 -7 19 -14 42 -17 50 -95
291 -119 336 -212 399 -117 80 -224 86 -416 23 -66 -22 -140 -49 -165 -60 -25
-12 -57 -23 -70 -26 -24 -4 -42 -10 -76 -23 -10 -3 -24 -7 -30 -9 -7 -1 -43
-12 -80 -24 -38 -12 -75 -23 -83 -25 -8 -2 -34 -10 -58 -19 -42 -15 -43 -15
-72 12 -23 23 -26 31 -18 47 6 11 14 22 18 25 9 7 100 136 127 179 12 20 46
86 76 146 50 102 62 128 66 147 1 4 10 27 20 50 30 70 81 292 88 376 4 64 2
86 -13 118 -10 21 -24 42 -30 47 -7 4 -19 13 -26 21 -26 26 -60 37 -109 38
-28 0 -56 -5 -62 -11 -17 -17 -47 -13 -47 7 0 22 -45 70 -78 84 -46 18 -89 10
-145 -25 -88 -56 -146 -70 -224 -53 -61 13 -122 65 -152 130 -11 22 -35 75
-54 116 -39 85 -91 142 -165 183 -66 36 -80 39 -178 43 -78 3 -85 1 -195 -47z"/>
</g>
</svg>
