<?xml version="1.0" encoding="UTF-8" standalone="no"?>
<!-- Created with Inkscape (http://www.inkscape.org/) -->

<svg
   xmlns:dc="http://purl.org/dc/elements/1.1/"
   xmlns:cc="http://creativecommons.org/ns#"
   xmlns:rdf="http://www.w3.org/1999/02/22-rdf-syntax-ns#"
   xmlns:svg="http://www.w3.org/2000/svg"
   xmlns="http://www.w3.org/2000/svg"
   xmlns:sodipodi="http://sodipodi.sourceforge.net/DTD/sodipodi-0.dtd"
   xmlns:inkscape="http://www.inkscape.org/namespaces/inkscape"
   width="23.153191mm"
   height="21.650927mm"
   viewBox="0 0 23.153191 21.650927"
   version="1.1"
   id="svg4668"
   inkscape:version="0.92.4 (5da689c313, 2019-01-14)"
   sodipodi:docname="icon.svg">
  <defs
     id="defs4662" />
  <sodipodi:namedview
     id="base"
     pagecolor="#ffffff"
     bordercolor="#666666"
     borderopacity="1.0"
     inkscape:pageopacity="0.0"
     inkscape:pageshadow="2"
     inkscape:zoom="3.959798"
     inkscape:cx="-39.000415"
     inkscape:cy="68.602301"
     inkscape:document-units="mm"
     inkscape:current-layer="layer1"
     showgrid="false"
     inkscape:window-width="2560"
     inkscape:window-height="1369"
     inkscape:window-x="-8"
     inkscape:window-y="-8"
     inkscape:window-maximized="1" />
  <metadata
     id="metadata4665">
    <rdf:RDF>
      <cc:Work
         rdf:about="">
        <dc:format>image/svg+xml</dc:format>
        <dc:type
           rdf:resource="http://purl.org/dc/dcmitype/StillImage" />
        <dc:title></dc:title>
      </cc:Work>
    </rdf:RDF>
  </metadata>
  <g
     inkscape:label="Layer 1"
     inkscape:groupmode="layer"
     id="layer1"
     transform="translate(-110.88769,-70.728109)">
    <circle
       style="fill:#ffb8b8;stroke-width:0.26458332"
       cx="72.363106"
       cy="128.33444"
       r="8.9946327"
       transform="rotate(-26.52984)"
       id="circle56" />
    <path
       inkscape:connector-curvature="0"
       style="fill:#2f2e41;stroke-width:0.26458332"
       d="m 124.56141,91.816636 c -0.41528,0.347316 -1.04095,0.530379 -1.89671,0.556922 a 11.51278,11.51278 0 0 1 -11.35348,-8.104315 c -0.37477,-1.211421 -0.69219,-3.018504 -0.0762,-4.748313 0.44299,-1.243232 1.31273,-2.285912 2.09321,-3.165684 0.67559,-0.761735 1.3806,-1.508 2.09575,-2.217597 0.85429,-0.848204 1.87267,-1.790186 3.15001,-2.232639 0.93598,-0.324024 1.93915,-0.35293 2.90932,-0.380833 0.33801,-0.0099 0.68778,-0.01979 1.02749,-0.04251 a 6.0050918,6.0050918 0 0 0 2.43375,-0.60692 1.2358926,1.2358926 0 0 1 1.02326,-0.06591 1.2576942,1.2576942 0 0 1 0.7346,0.740711 c 0.12266,0.331931 0.23314,0.631272 0.6085,0.741765 a 0.85713358,0.85713358 0 0 0 0.78327,-0.179472 0.44370625,0.44370625 0 0 1 0.41354,-0.09054 0.45229992,0.45229992 0 0 1 0.30753,0.291176 l 0.0308,0.09111 a 0.5770245,0.5770245 0 0 1 0.53297,-0.06411 0.59129612,0.59129612 0 0 1 0.38638,0.631447 5.927725,5.927725 0 0 1 -1.24595,3.012871 5.7733644,5.7733644 0 0 1 -1.72826,1.43868 l -0.10649,0.05874 -0.0736,-0.110887 c -2.98911,1.104405 -3.90191,4.236116 -3.7543,6.820164 l -0.26149,0.03512 a 0.64008265,0.64008265 0 0 0 -0.30016,-0.403098 0.77806021,0.77806021 0 0 0 -0.58744,-0.102201 1.0075042,1.0075042 0 0 0 -0.70072,0.871337 1.4953059,1.4953059 0 0 0 0.41304,1.13293 4.0585205,4.0585205 0 0 0 1.06971,0.762921 c 0.17936,0.101279 0.36495,0.206094 0.54074,0.321132 a 4.8448463,4.8448463 0 0 1 2.01625,2.80982 c 0.13646,0.527547 0.21479,1.28021 -0.18691,1.86981 a 1.6064442,1.6064442 0 0 1 -0.2984,0.328377 z"
       id="path58" />
    <path
       inkscape:connector-curvature="0"
       style="fill:#3f3d56;stroke-width:0.26458332"
       d="m 128.83276,83.943155 a 1.2459917,1.2459917 0 0 1 -1.18902,-0.876565 c -3.61017,-1.881452 -1.70155,-3.208258 -1.45294,-4.70191 a 1.2433168,1.2433168 0 0 1 0.82089,-1.555057 l 3.69073,-1.140618 a 1.2447217,1.2447217 0 0 1 1.55533,0.821002 l 1.45301,4.70191 a 1.244899,1.244899 0 0 1 -0.82094,1.555072 l -3.69073,1.140619 a 1.2404169,1.2404169 0 0 1 -0.36633,0.05555 z"
       id="path62" />
    <path
       inkscape:connector-curvature="0"
       style="fill:#6c63ff;stroke-width:0.26458332"
       d="m 131.24442,75.505974 a 1.2501801,1.2501801 0 0 1 1.20339,0.881417 l 1.5307,4.807407 a 1.3010277,1.3010277 0 0 1 -0.0726,0.975027 1.243928,1.243928 0 0 1 -0.72242,0.635931 l -0.82986,0.278395 -2.30432,-7.236801 0.82974,-0.278392 a 1.2097623,1.2097623 0 0 1 0.36536,-0.06298 z"
       id="path64" />
    <path
       inkscape:connector-curvature="0"
       style="fill:#3f3d56;stroke-width:0.26458332"
       d="m 112.16633,86.621415 a 0.80531494,0.80531494 0 0 1 -0.76875,-0.566761 l -0.38447,-1.24411 a 0.80406875,0.80406875 0 0 1 0.53091,-1.005623 l 16.6641,-5.149686 a 0.80406875,0.80406875 0 0 1 1.00581,0.530976 l 0.38441,1.243981 a 0.80498156,0.80498156 0 0 1 -0.53084,1.005623 l -16.66417,5.149686 a 0.79970577,0.79970577 0 0 1 -0.237,0.03591 z"
       id="path66" />
    <path
       inkscape:connector-curvature="0"
       style="fill:#3f3d56;stroke-width:0.26458332"
       d="m 130.6184,78.826404 a 0.66254842,0.66254842 0 0 1 -0.62774,-0.451262 l -0.33667,-1.003171 a 0.66145833,0.66145833 0 1 1 1.25419,-0.420774 l 0.33667,1.00317 a 0.66249815,0.66249815 0 0 1 -0.41664,0.837671 h -1.3e-4 a 0.65934167,0.65934167 0 0 1 -0.20968,0.03437 z"
       id="path127" />
    <path
       inkscape:connector-curvature="0"
       style="fill:#3f3d56;stroke-width:0.26458332"
       d="m 131.38684,81.47973 a 0.66231294,0.66231294 0 0 1 -0.63524,-0.480848 l -0.28938,-1.018024 a 0.66147421,0.66147421 0 0 1 1.27253,-0.361735 l 0.28939,1.018024 a 0.66145833,0.66145833 0 0 1 -0.45553,0.817133 0.66449575,0.66449575 0 0 1 -0.18177,0.02545 z"
       id="path129" />
    <circle
       id="circle5249"
       transform="rotate(-26.52984)"
       r="8.9946327"
       cy="128.33444"
       cx="72.363106"
       style="fill:#ffb8b8;stroke-width:0.26458332" />
    <path
       id="path5251"
       d="m 124.56141,91.816636 c -0.41528,0.347316 -1.04095,0.530379 -1.89671,0.556922 a 11.51278,11.51278 0 0 1 -11.35348,-8.104315 c -0.37477,-1.211421 -0.69219,-3.018504 -0.0762,-4.748313 0.44299,-1.243232 1.31273,-2.285912 2.09321,-3.165684 0.67559,-0.761735 1.3806,-1.508 2.09575,-2.217597 0.85429,-0.848204 1.87267,-1.790186 3.15001,-2.232639 0.93598,-0.324024 1.93915,-0.35293 2.90932,-0.380833 0.33801,-0.0099 0.68778,-0.01979 1.02749,-0.04251 a 6.0050918,6.0050918 0 0 0 2.43375,-0.60692 1.2358926,1.2358926 0 0 1 1.02326,-0.06591 1.2576942,1.2576942 0 0 1 0.7346,0.740711 c 0.12266,0.331931 0.23314,0.631272 0.6085,0.741765 a 0.85713358,0.85713358 0 0 0 0.78327,-0.179472 0.44370625,0.44370625 0 0 1 0.41354,-0.09054 0.45229992,0.45229992 0 0 1 0.30753,0.291176 l 0.0308,0.09111 a 0.5770245,0.5770245 0 0 1 0.53297,-0.06411 0.59129612,0.59129612 0 0 1 0.38638,0.631447 5.927725,5.927725 0 0 1 -1.24595,3.012871 5.7733644,5.7733644 0 0 1 -1.72826,1.43868 l -0.10649,0.05874 -0.0736,-0.110887 c -2.98911,1.104405 -3.90191,4.236116 -3.7543,6.820164 l -0.26149,0.03512 a 0.64008265,0.64008265 0 0 0 -0.30016,-0.403098 0.77806021,0.77806021 0 0 0 -0.58744,-0.102201 1.0075042,1.0075042 0 0 0 -0.70072,0.871337 1.4953059,1.4953059 0 0 0 0.41304,1.13293 4.0585205,4.0585205 0 0 0 1.06971,0.762921 c 0.17936,0.101279 0.36495,0.206094 0.54074,0.321132 a 4.8448463,4.8448463 0 0 1 2.01625,2.80982 c 0.13646,0.527547 0.21479,1.28021 -0.18691,1.86981 a 1.6064442,1.6064442 0 0 1 -0.2984,0.328377 z"
       style="fill:#2f2e41;stroke-width:0.26458332"
       inkscape:connector-curvature="0" />
    <path
       id="path5253"
       d="m 128.83276,83.943155 a 1.2459917,1.2459917 0 0 1 -1.18902,-0.876565 c -3.61017,-1.881452 -1.70155,-3.208258 -1.45294,-4.70191 a 1.2433168,1.2433168 0 0 1 0.82089,-1.555057 l 3.69073,-1.140618 a 1.2447217,1.2447217 0 0 1 1.55533,0.821002 l 1.45301,4.70191 a 1.244899,1.244899 0 0 1 -0.82094,1.555072 l -3.69073,1.140619 a 1.2404169,1.2404169 0 0 1 -0.36633,0.05555 z"
       style="fill:#3f3d56;stroke-width:0.26458332"
       inkscape:connector-curvature="0" />
    <path
       id="path5255"
       d="m 131.24442,75.505974 a 1.2501801,1.2501801 0 0 1 1.20339,0.881417 l 1.5307,4.807407 a 1.3010277,1.3010277 0 0 1 -0.0726,0.975027 1.243928,1.243928 0 0 1 -0.72242,0.635931 l -0.82986,0.278395 -2.30432,-7.236801 0.82974,-0.278392 a 1.2097623,1.2097623 0 0 1 0.36536,-0.06298 z"
       style="fill:#6c63ff;stroke-width:0.26458332"
       inkscape:connector-curvature="0" />
    <path
       id="path5257"
       d="m 112.16633,86.621415 a 0.80531494,0.80531494 0 0 1 -0.76875,-0.566761 l -0.38447,-1.24411 a 0.80406875,0.80406875 0 0 1 0.53091,-1.005623 l 16.6641,-5.149686 a 0.80406875,0.80406875 0 0 1 1.00581,0.530976 l 0.38441,1.243981 a 0.80498156,0.80498156 0 0 1 -0.53084,1.005623 l -16.66417,5.149686 a 0.79970577,0.79970577 0 0 1 -0.237,0.03591 z"
       style="fill:#3f3d56;stroke-width:0.26458332"
       inkscape:connector-curvature="0" />
    <path
       id="path5259"
       d="m 130.6184,78.826404 a 0.66254842,0.66254842 0 0 1 -0.62774,-0.451262 l -0.33667,-1.003171 a 0.66145833,0.66145833 0 1 1 1.25419,-0.420774 l 0.33667,1.00317 a 0.66249815,0.66249815 0 0 1 -0.41664,0.837671 h -1.3e-4 a 0.65934167,0.65934167 0 0 1 -0.20968,0.03437 z"
       style="fill:#3f3d56;stroke-width:0.26458332"
       inkscape:connector-curvature="0" />
    <path
       id="path5261"
       d="m 131.38684,81.47973 a 0.66231294,0.66231294 0 0 1 -0.63524,-0.480848 l -0.28938,-1.018024 a 0.66147421,0.66147421 0 0 1 1.27253,-0.361735 l 0.28939,1.018024 a 0.66145833,0.66145833 0 0 1 -0.45553,0.817133 0.66449575,0.66449575 0 0 1 -0.18177,0.02545 z"
       style="fill:#3f3d56;stroke-width:0.26458332"
       inkscape:connector-curvature="0" />
  </g>
</svg>
